<svg class="symbol" xmlns="http://www.w3.org/2000/svg" viewBox="0 0 600 540"><defs><style>.cls-1{fill:#ede589;}</style></defs><g id="Layer_2" data-name="Layer 2"><g id="Layer_1-2" data-name="Layer 1"><path class="cls-1" d="M384,48.39,585,383.22c28.89,48.09,14.7,111.36-31.71,141.3A96.45,96.45,0,0,1,501,540H98.94C44.31,540,0,494.1,0,437.43a105.59,105.59,0,0,1,14.94-54.21L216,48.39C244.86.3,305.88-14.43,352.29,15.51A100.73,100.73,0,0,1,384,48.39ZM317.4,73.56a32.31,32.31,0,0,0-45.42,11L71,419.4a35,35,0,0,0-5,18.06c0,18.9,14.76,34.2,33,34.2H501a32.18,32.18,0,0,0,17.43-5.16A34.91,34.91,0,0,0,529,419.4L328,84.51a33.59,33.59,0,0,0-10.56-11ZM300,420a30,30,0,1,1,21.21-8.79A30,30,0,0,1,300,420Zm0-270a30,30,0,0,1,30,30V300a30,30,0,0,1-60,0V180a30,30,0,0,1,30-30Z"/></g></g></svg>