<svg xmlns="http://www.w3.org/2000/svg" viewBox="0 0 367.97 578.23"><defs><style>.cls-1{fill:#ede589;}</style></defs><g id="Layer_2" data-name="Layer 2"><g id="Layer_1-2" data-name="Layer 1"><path class="cls-1" d="M26.28,157.7V420.53h184V157.7Zm83.06,236.55V312h-46l65.71-128v82.53h44.16Zm127.21-368V131.42H0V26.28A26.36,26.36,0,0,1,26.28,0h184A26.36,26.36,0,0,1,236.55,26.28Zm0,420.54V552a26.36,26.36,0,0,1-26.28,26.28h-184A26.36,26.36,0,0,1,0,552V446.82ZM368,315.4H315.4V157.7H368Zm0,105.13H315.4V368H368Z"/></g></g></svg>