<svg xmlns="http://www.w3.org/2000/svg" viewBox="0 0 419.5 599.48"><defs><style>.cls-1,.cls-2{fill:#ede589;}.cls-1{fill-rule:evenodd;}</style></defs><g id="Layer_2" data-name="Layer 2"><g id="Layer_1-2" data-name="Layer 1"><path class="cls-1" d="M46,333.89c14.41,17.62,51.09,82.9,58.88,115.59H314.63c7.79-32.66,44.43-97.94,58.84-115.54a202.07,202.07,0,0,0,25.36-217.4,206.89,206.89,0,0,0-77.37-85,213.41,213.41,0,0,0-223.36,0,206.92,206.92,0,0,0-77.4,84.95A202,202,0,0,0,46,333.89ZM224.31,119.48l-90,135h60v90l90-135h-60Z"/><path class="cls-2" d="M104.75,494.48a14.94,14.94,0,0,1,15.17-15H299.58a15,15,0,1,1,0,30H119.94a14.95,14.95,0,0,1-15.19-15Z"/><path class="cls-2" d="M314.31,539.48h-210v30a30,30,0,0,0,30,30h150a30,30,0,0,0,30-30Z"/></g></g></svg>