<svg xmlns="http://www.w3.org/2000/svg" viewBox="0 0 458.48 600"><defs><style>.cls-1{fill:#ede589;fill-rule:evenodd;}</style></defs><g id="Layer_2" data-name="Layer 2"><g id="Layer_1-2" data-name="Layer 1"><path class="cls-1" d="M420.21,211.69H303.56L378.93,49.18a32.88,32.88,0,0,0,2.94-17,33.56,33.56,0,0,0-6.15-16.29A37.33,37.33,0,0,0,362,4.22,40.72,40.72,0,0,0,343.85,0H152.94a40.4,40.4,0,0,0-21,5.82,36,36,0,0,0-14.09,15.56L3.27,268.35a32.79,32.79,0,0,0-2.93,17A33.57,33.57,0,0,0,6.5,301.68a37.13,37.13,0,0,0,13.79,11.64,40.72,40.72,0,0,0,18.11,4.21h66.21L3,551.33c-15.27,35.11,31.88,64.78,61.62,38.81l191.82-167.3L445,273.78C472,252.47,455.72,211.69,420.21,211.69ZM210.6,233.07a32.84,32.84,0,0,0-2.94,17,33.61,33.61,0,0,0,6.14,16.28A37.24,37.24,0,0,0,227.56,278a40.75,40.75,0,0,0,18.09,4.23h71.16L205.33,370.38l-66.74,58.21,57.92-133.18a32.92,32.92,0,0,0,2.54-16.89,33.56,33.56,0,0,0-6.33-16A37.22,37.22,0,0,0,179,251.1a40.6,40.6,0,0,0-17.9-4.13H96.32L178.1,70.56H285.93Z"/></g></g></svg>