<svg xmlns="http://www.w3.org/2000/svg" viewBox="0 0 599.75 533.11"><defs><style>.cls-1{fill:#ede589;}</style></defs><g id="Layer_2" data-name="Layer 2"><g id="Layer_1-2" data-name="Layer 1"><path class="cls-1" d="M599.75,333.19a33.42,33.42,0,0,0-33.32-33.32H499.79v66.64h66.64A33.41,33.41,0,0,0,599.75,333.19Zm-33.32,100H499.79v66.64h66.64a33.32,33.32,0,1,0,0-66.64Zm-266.56-100H233.24V466.47h66.63a66.84,66.84,0,0,0,66.64,66.64h100V266.55h-100A66.84,66.84,0,0,0,299.87,333.19Z"/><path class="cls-1" d="M66.64,299.87a66.84,66.84,0,0,1,66.64-66.64h50A116.62,116.62,0,0,0,183.26,0H66.64a33.32,33.32,0,0,0,0,66.64H183.26a50,50,0,1,1,0,100h-50a133.28,133.28,0,1,0,0,266.55h66.64V366.51H133.28A66.83,66.83,0,0,1,66.64,299.87Z"/></g></g></svg>