<svg xmlns="http://www.w3.org/2000/svg" viewBox="0 0 600 596.24"><defs><style>.cls-1{fill:#ede589;}</style></defs><g id="Layer_2" data-name="Layer 2"><g id="Layer_1-2" data-name="Layer 1"><path class="cls-1" d="M299.06,402.51l33.86-30.1-33.86-33.85L513.48,124.14l45.14-15L600,26.33,573.67,0,487.15,37.62,468.34,82.76,257.68,297.18l-33.86-33.86-30.09,33.86s30.09,22.57-3.76,56.43c-18.81,18.8-48.9-3.77-105.33,52.66l-79,79S-16.93,522.88,28.21,568,111,590.6,111,590.6l79-79c52.66-52.67,33.85-86.52,48.9-101.57C272.73,376.18,299.06,402.51,299.06,402.51ZM182.44,387.46l26.34,26.33-142.95,143L39.5,530.41Z"/></g></g></svg>